<svg xmlns="http://www.w3.org/2000/svg" xmlns:xlink="http://www.w3.org/1999/xlink" width="70" height="70" viewBox="0 0 70 70"><defs><path id="a" d="M4 0h61c4 0 5 1 5 5v60c0 4-1 5-5 5H4c-3 0-4-1-4-5V5c0-4 1-5 4-5z"/><linearGradient id="c" x1="100%" x2="0%" y1="0%" y2="100%"><stop offset="0%" stop-color="#CD7690"/><stop offset="100%" stop-color="#CA5377"/></linearGradient><path id="d" d="M57.706 35.71c0 9.276-10.012 16.777-22.351 16.777-3.749 0-7.287-.694-10.392-1.92-3.127 2.517-6.969 4.057-11.051 4.493a.835.835 0 0 1-.893-.621c-.1-.404.21-.654.513-.952 1.497-1.484 3.313-2.646 4.027-7.63-2.855-2.815-4.555-6.331-4.555-10.146 0-9.267 10.011-16.776 22.35-16.776 12.34 0 22.352 7.509 22.352 16.776zm-33.647-6.534a1 1 0 0 0-1 1v1.353a1 1 0 0 0 1 1h22.588a1 1 0 0 0 1-1v-1.353a1 1 0 0 0-1-1H24.06zm0 8.056a1 1 0 0 0-1 1v1.353a1 1 0 0 0 1 1h22.588a1 1 0 0 0 1-1v-1.353a1 1 0 0 0-1-1H24.06z"/><path id="e" d="M57.706 33.71c0 9.276-10.012 16.777-22.351 16.777-3.749 0-7.287-.694-10.392-1.92-3.127 2.517-6.969 4.057-11.051 4.493a.835.835 0 0 1-.893-.621c-.1-.404.21-.654.513-.952 1.497-1.484 3.313-2.646 4.027-7.63-2.855-2.815-4.555-6.331-4.555-10.146 0-9.267 10.011-16.776 22.35-16.776 12.34 0 22.352 7.509 22.352 16.776zm-33.647-6.534a1 1 0 0 0-1 1v1.353a1 1 0 0 0 1 1h22.588a1 1 0 0 0 1-1v-1.353a1 1 0 0 0-1-1H24.06zm0 8.056a1 1 0 0 0-1 1v1.353a1 1 0 0 0 1 1h22.588a1 1 0 0 0 1-1v-1.353a1 1 0 0 0-1-1H24.06z"/></defs><g fill="none" fill-rule="evenodd"><mask id="b" fill="#fff"><use xlink:href="#a"/></mask><g mask="url(#b)"><path fill="url(#c)" d="M0 0H70V70H0z"/><path fill="#FFF" fill-opacity=".383" d="M4 1h61c2.667 0 4.333.667 5 2V0H0v3c.667-1.333 2-2 4-2z"/><path fill="#393939" d="M40.32 69H4c-2 0-4-.146-4-4.098V42.255L17.288 24 54 24.95l2 15.366L40.32 69z" opacity=".324"/><path fill="#000" fill-opacity=".383" d="M4 69h61c2.667 0 4.333-1 5-3v4H0v-4c.667 2 2 3 4 3z"/><use fill="#000" fill-rule="nonzero" opacity=".3" xlink:href="#d"/><use fill="#FFF" fill-rule="nonzero" xlink:href="#e"/></g></g></svg>