<svg xmlns="http://www.w3.org/2000/svg" xmlns:xlink="http://www.w3.org/1999/xlink" width="70" height="70" viewBox="0 0 70 70"><defs><path id="a" d="M4 0h61c4 0 5 1 5 5v60c0 4-1 5-5 5H4c-3 0-4-1-4-5V5c0-4 1-5 4-5z"/><linearGradient id="c" x1="100%" x2="0%" y1="0%" y2="100%"><stop offset="0%" stop-color="#94B6C8"/><stop offset="100%" stop-color="#6A9EBA"/></linearGradient></defs><g fill="none" fill-rule="evenodd"><mask id="b" fill="#fff"><use xlink:href="#a"/></mask><g mask="url(#b)"><path fill="url(#c)" d="M0 0H70V70H0z"/><path fill="#FFF" fill-opacity=".383" d="M4 1h61c2.667 0 4.333.667 5 2V0H0v3c.667-1.333 2-2 4-2z"/><path fill="#393939" d="M4 69c-2 0-4-.146-4-4.077V39.797L15 16h39v26.312h3.79l1.21 11.4L40.711 69H4z" opacity=".324"/><path fill="#000" fill-opacity=".383" d="M4 69h61c2.667 0 4.333-1 5-3v4H0v-4c.667 2 2 3 4 3z"/><path fill="#000" fill-rule="nonzero" d="M42.096 41.432V28.756h-1.713c-.123.685-.35 1.25-.684 1.695a3.627 3.627 0 0 1-1.239 1.054 5.2 5.2 0 0 1-1.606.54c-.597.085-1.212.128-1.844.128v1.746h4.847v13.05h1.147L41 47c.667 0 1 .333 1 1v1c-1.333.667-2 1.333-2 2 0 .541.22 1.302.66 2.283H15V24.048h39.763V37H49c-.667 0-1 .333-1 1v1c0 .667-.667 1-2 1h-3c-.301 0-.603.477-.904 1.432zM54.763 23.04H15V18h39.763v5.04zm4.349 26.576l1.655.97c.189.11.277.338.212.55a9.784 9.784 0 0 1-2.124 3.724.462.462 0 0 1-.576.09l-1.653-.97a7.415 7.415 0 0 1-2.36 1.384v1.937a.472.472 0 0 1-.364.461 9.575 9.575 0 0 1-4.241 0 .472.472 0 0 1-.365-.461v-1.937a7.414 7.414 0 0 1-2.36-1.383l-1.653.968a.462.462 0 0 1-.576-.089 9.784 9.784 0 0 1-2.124-3.724.476.476 0 0 1 .212-.55l1.655-.97a7.724 7.724 0 0 1 0-2.764l-1.655-.969a.476.476 0 0 1-.212-.55 9.784 9.784 0 0 1 2.124-3.725.462.462 0 0 1 .576-.089l1.654.969a7.415 7.415 0 0 1 2.359-1.383v-1.937c0-.221.151-.413.364-.462a9.575 9.575 0 0 1 4.241 0c.213.049.365.24.365.462v1.936c.864.31 1.664.78 2.36 1.384l1.653-.969a.462.462 0 0 1 .576.09 9.784 9.784 0 0 1 2.124 3.724.476.476 0 0 1-.212.55l-1.655.97c.166.913.166 1.85 0 2.763zm-4.224-1.382c0-1.737-1.394-3.15-3.107-3.15-1.713 0-3.106 1.413-3.106 3.15 0 1.737 1.393 3.15 3.106 3.15 1.713 0 3.107-1.413 3.107-3.15zM25.338 20.69A1.68 1.68 0 0 0 23.67 19 1.68 1.68 0 0 0 22 20.69c0 .933.747 1.69 1.67 1.69a1.68 1.68 0 0 0 1.668-1.69zm23 0A1.68 1.68 0 0 0 46.67 19 1.68 1.68 0 0 0 45 20.69c0 .933.747 1.69 1.67 1.69a1.68 1.68 0 0 0 1.668-1.69zm-21.87 17.725a9.454 9.454 0 0 1 1.239-.077c.501 0 .979.077 1.432.23.453.138.841.36 1.165.669.324.29.583.659.777 1.104.194.428.291.925.291 1.49 0 .548-.105 1.045-.315 1.49a3.331 3.331 0 0 1-.801 1.104c-.34.292-.737.523-1.19.694-.453.154-.93.231-1.432.231-1.182 0-2.08-.368-2.695-1.104-.615-.754-.939-1.721-.971-2.903h-2.063c-.017.942.105 1.781.364 2.517a5.297 5.297 0 0 0 1.165 1.876 5.21 5.21 0 0 0 1.82 1.155c.713.257 1.506.386 2.38.386.809 0 1.57-.12 2.282-.36.728-.24 1.36-.59 1.893-1.053a4.888 4.888 0 0 0 1.263-1.721c.323-.702.485-1.507.485-2.415 0-1.096-.259-2.046-.777-2.851-.501-.805-1.278-1.327-2.33-1.567v-.051a4.45 4.45 0 0 0 1.675-1.439c.47-.65.704-1.378.704-2.183 0-.84-.138-1.567-.413-2.184a3.922 3.922 0 0 0-1.092-1.515 4.544 4.544 0 0 0-1.675-.874 6.633 6.633 0 0 0-2.064-.308c-.858 0-1.618.146-2.282.437a4.553 4.553 0 0 0-1.626 1.207 5.567 5.567 0 0 0-1.02 1.85 9.05 9.05 0 0 0-.388 2.389h2.063c0-.531.065-1.037.194-1.516.13-.48.324-.9.583-1.259a2.95 2.95 0 0 1 1.02-.847c.404-.223.89-.334 1.456-.334.874 0 1.602.248 2.185.745.583.496.874 1.224.874 2.183 0 .497-.089.933-.267 1.31-.178.36-.42.668-.728.925-.292.24-.64.428-1.044.565-.389.12-.801.18-1.238.18h-.437c-.146 0-.3-.009-.462-.026v1.85zm-12.66 19.093h-1.284v-.792h3.51v.792H14.75V61h-.942v-3.492zm2.718-.792h1.326l1.002 2.946h.012l.948-2.946h1.326V61h-.882v-3.036h-.012L19.196 61h-.726l-1.05-3.006h-.012V61h-.882v-4.284z" opacity=".3"/><path fill="#FFF" fill-rule="nonzero" d="M42.096 39.432V26.756h-1.713c-.123.685-.35 1.25-.684 1.695a3.627 3.627 0 0 1-1.239 1.054 5.2 5.2 0 0 1-1.606.54c-.597.085-1.212.128-1.844.128v1.746h4.847v13.05h1.147L41 45c.667 0 1 .333 1 1v1c-1.333.667-2 1.333-2 2 0 .541.22 1.302.66 2.283H15V22.048h39.763V35H49c-.667 0-1 .333-1 1v1c0 .667-.667 1-2 1h-3c-.301 0-.603.477-.904 1.432zM54.763 21.04H15V16h39.763v5.04zm4.349 26.576l1.655.97c.189.11.277.338.212.55a9.784 9.784 0 0 1-2.124 3.724.462.462 0 0 1-.576.09l-1.653-.97a7.415 7.415 0 0 1-2.36 1.384v1.937a.472.472 0 0 1-.364.461 9.575 9.575 0 0 1-4.241 0 .472.472 0 0 1-.365-.461v-1.937a7.414 7.414 0 0 1-2.36-1.383l-1.653.968a.462.462 0 0 1-.576-.089 9.784 9.784 0 0 1-2.124-3.724.476.476 0 0 1 .212-.55l1.655-.97a7.724 7.724 0 0 1 0-2.764l-1.655-.969a.476.476 0 0 1-.212-.55 9.784 9.784 0 0 1 2.124-3.725.462.462 0 0 1 .576-.089l1.654.969a7.415 7.415 0 0 1 2.359-1.383v-1.937c0-.221.151-.413.364-.462a9.575 9.575 0 0 1 4.241 0c.213.049.365.24.365.462v1.936c.864.31 1.664.78 2.36 1.384l1.653-.969a.462.462 0 0 1 .576.09 9.784 9.784 0 0 1 2.124 3.724.476.476 0 0 1-.212.55l-1.655.97c.166.913.166 1.85 0 2.763zm-4.224-1.382c0-1.737-1.394-3.15-3.107-3.15-1.713 0-3.106 1.413-3.106 3.15 0 1.737 1.393 3.15 3.106 3.15 1.713 0 3.107-1.413 3.107-3.15zM25.338 18.69A1.68 1.68 0 0 0 23.67 17 1.68 1.68 0 0 0 22 18.69c0 .933.747 1.69 1.67 1.69a1.68 1.68 0 0 0 1.668-1.69zm23 0A1.68 1.68 0 0 0 46.67 17 1.68 1.68 0 0 0 45 18.69c0 .933.747 1.69 1.67 1.69a1.68 1.68 0 0 0 1.668-1.69zm-21.87 17.725a9.454 9.454 0 0 1 1.239-.077c.501 0 .979.077 1.432.23.453.138.841.36 1.165.669.324.29.583.659.777 1.104.194.428.291.925.291 1.49 0 .548-.105 1.045-.315 1.49a3.331 3.331 0 0 1-.801 1.104c-.34.292-.737.523-1.19.694-.453.154-.93.231-1.432.231-1.182 0-2.08-.368-2.695-1.104-.615-.754-.939-1.721-.971-2.903h-2.063c-.017.942.105 1.781.364 2.517a5.297 5.297 0 0 0 1.165 1.876 5.21 5.21 0 0 0 1.82 1.155c.713.257 1.506.386 2.38.386.809 0 1.57-.12 2.282-.36.728-.24 1.36-.59 1.893-1.053a4.888 4.888 0 0 0 1.263-1.721c.323-.702.485-1.507.485-2.415 0-1.096-.259-2.046-.777-2.851-.501-.805-1.278-1.327-2.33-1.567v-.051a4.45 4.45 0 0 0 1.675-1.439c.47-.65.704-1.378.704-2.183 0-.84-.138-1.567-.413-2.184a3.922 3.922 0 0 0-1.092-1.515 4.544 4.544 0 0 0-1.675-.874 6.633 6.633 0 0 0-2.064-.308c-.858 0-1.618.146-2.282.437a4.553 4.553 0 0 0-1.626 1.207 5.567 5.567 0 0 0-1.02 1.85 9.05 9.05 0 0 0-.388 2.389h2.063c0-.531.065-1.037.194-1.516.13-.48.324-.9.583-1.259a2.95 2.95 0 0 1 1.02-.847c.404-.223.89-.334 1.456-.334.874 0 1.602.248 2.185.745.583.496.874 1.224.874 2.183 0 .497-.089.933-.267 1.31-.178.36-.42.668-.728.925-.292.24-.64.428-1.044.565-.389.12-.801.18-1.238.18h-.437c-.146 0-.3-.009-.462-.026v1.85zm-12.66 19.093h-1.284v-.792h3.51v.792H14.75V59h-.942v-3.492zm2.718-.792h1.326l1.002 2.946h.012l.948-2.946h1.326V59h-.882v-3.036h-.012L19.196 59h-.726l-1.05-3.006h-.012V59h-.882v-4.284z"/></g></g></svg>