<svg xmlns="http://www.w3.org/2000/svg" xmlns:xlink="http://www.w3.org/1999/xlink" width="70" height="70" viewBox="0 0 70 70"><defs><path id="a" d="M4 0h61c4 0 5 1 5 5v60c0 4-1 5-5 5H4c-3 0-4-1-4-5V5c0-4 1-5 4-5z"/><linearGradient id="c" x1="98.162%" x2="0%" y1="1.838%" y2="100%"><stop offset="0%" stop-color="#797DA5"/><stop offset="50.799%" stop-color="#6D7194"/><stop offset="100%" stop-color="#626584"/></linearGradient><path id="d" d="M54.856 29.839h-4.46l-.64-1.705a10.37 10.37 0 0 0-3.82-4.904 10.37 10.37 0 0 0-5.933-1.855H29.997c-2.13 0-4.182.641-5.933 1.855a10.37 10.37 0 0 0-3.82 4.904l-.64 1.705h-4.46a.977.977 0 0 0-.926 1.285l.65 1.953a.977.977 0 0 0 .927.668h2.345l-.004.011a5.206 5.206 0 0 0-2.667 4.546v3.906c0 1.32.492 2.525 1.302 3.443v5.02c0 1.08.874 1.954 1.953 1.954h3.906a1.953 1.953 0 0 0 1.953-1.953v-3.255h20.834v3.255c0 1.079.874 1.953 1.953 1.953h3.906a1.953 1.953 0 0 0 1.953-1.953v-5.02a5.187 5.187 0 0 0 1.302-3.444v-3.906a5.206 5.206 0 0 0-2.667-4.546l-.004-.011h2.345c.42 0 .793-.27.926-.668l.651-1.953a.977.977 0 0 0-.926-1.285zm-29.735.124a5.233 5.233 0 0 1 4.876-3.38h10.006a5.233 5.233 0 0 1 4.876 3.38l1.174 3.13H23.947l1.174-3.13zm-3.793 12.896a2.604 2.604 0 0 1 0-5.208c1.438 0 3.906 2.468 3.906 3.906 0 1.439-2.468 1.302-3.906 1.302zm27.344 0c-1.438 0-3.906.137-3.906-1.302 0-1.438 2.468-3.906 3.906-3.906a2.604 2.604 0 0 1 0 5.208z"/><path id="e" d="M54.856 27.839h-4.46l-.64-1.705a10.37 10.37 0 0 0-3.82-4.904 10.37 10.37 0 0 0-5.933-1.855H29.997c-2.13 0-4.182.641-5.933 1.855a10.37 10.37 0 0 0-3.82 4.904l-.64 1.705h-4.46a.977.977 0 0 0-.926 1.285l.65 1.953a.977.977 0 0 0 .927.668h2.345l-.004.011a5.206 5.206 0 0 0-2.667 4.546v3.906c0 1.32.492 2.525 1.302 3.443v5.02c0 1.08.874 1.954 1.953 1.954h3.906a1.953 1.953 0 0 0 1.953-1.953v-3.255h20.834v3.255c0 1.079.874 1.953 1.953 1.953h3.906a1.953 1.953 0 0 0 1.953-1.953v-5.02a5.187 5.187 0 0 0 1.302-3.444v-3.906a5.206 5.206 0 0 0-2.667-4.546l-.004-.011h2.345c.42 0 .793-.27.926-.668l.651-1.953a.977.977 0 0 0-.926-1.285zm-29.735.124a5.233 5.233 0 0 1 4.876-3.38h10.006a5.233 5.233 0 0 1 4.876 3.38l1.174 3.13H23.947l1.174-3.13zm-3.793 12.896a2.604 2.604 0 0 1 0-5.208c1.438 0 3.906 2.468 3.906 3.906 0 1.439-2.468 1.302-3.906 1.302zm27.344 0c-1.438 0-3.906.137-3.906-1.302 0-1.438 2.468-3.906 3.906-3.906a2.604 2.604 0 0 1 0 5.208z"/></defs><g fill="none" fill-rule="evenodd"><mask id="b" fill="#fff"><use xlink:href="#a"/></mask><g mask="url(#b)"><path fill="url(#c)" d="M0 0H70V70H0z"/><path fill="#FFF" fill-opacity=".383" d="M4 1h61c2.667 0 4.333.667 5 2V0H0v3c.667-1.333 2-2 4-2z"/><path fill="#393939" d="M4 70c-2 0-4-.15-4-4.174V45.173L25 22h19l9 13.565v15.652L41 70H4z" opacity=".324"/><path fill="#000" fill-opacity=".383" d="M4 69h61c2.667 0 4.333-1 5-3v4H0v-4c.667 2 2 3 4 3z"/><use fill="#000" fill-rule="nonzero" opacity=".3" xlink:href="#d"/><use fill="#FFF" fill-rule="nonzero" xlink:href="#e"/></g></g></svg>