<svg xmlns="http://www.w3.org/2000/svg" xmlns:xlink="http://www.w3.org/1999/xlink" width="70" height="70" viewBox="0 0 70 70"><defs><path id="a" d="M4 0h61c4 0 5 1 5 5v60c0 4-1 5-5 5H4c-3 0-4-1-4-5V5c0-4 1-5 4-5z"/><linearGradient id="c" x1="100%" x2="0%" y1="0%" y2="100%"><stop offset="0%" stop-color="#B06161"/><stop offset="45.785%" stop-color="#984E4E"/><stop offset="100%" stop-color="#7C3838"/></linearGradient><path id="d" d="M43.272 47H4.025C2.012 47 0 45.981 0 42.924V18.201L16.226 0l9.76 2.344 19.149 13.378L52.32 8.28l5.03 5.095-5.319 12.52L59 31.064l-15.503 15.7-.225.235z"/><path id="e" d="M29.815 45.437c-3.046 0-5.917-.554-8.438-1.533-2.542 2.013-5.66 3.24-8.974 3.592a.67.67 0 0 1-.722-.493c-.079-.325.17-.525.416-.763 1.217-1.185 2.692-2.116 3.268-6.095-2.32-2.252-3.698-5.063-3.698-8.114 0-7.405 8.126-13.406 18.148-13.406s18.148 6.001 18.148 13.406c0 7.41-8.126 13.406-18.148 13.406zm28.119 8.792c-1.13-1.077-2.5-1.923-3.035-5.54 5.574-5.297 4.227-12.874-3.053-16.986.003.11.006.218.006.328 0 10.049-10.499 17.751-23.03 17.327 3.089 2.54 7.615 4.142 12.66 4.142 2.828 0 5.493-.504 7.834-1.395 2.36 1.831 5.257 2.947 8.333 3.266a.623.623 0 0 0 .67-.448c.074-.295-.157-.477-.385-.694z"/></defs><g fill="none" fill-rule="evenodd"><mask id="b" fill="#fff"><use xlink:href="#a"/></mask><g mask="url(#b)"><path fill="url(#c)" d="M0 0H70V70H0z"/><path fill="#FFF" fill-opacity=".383" d="M4 1h61c2.667 0 4.333.667 5 2V0H0v3c.667-1.333 2-2 4-2z"/><use fill="#000" fill-opacity=".151" xlink:href="#d" transform="translate(0 22)"/><path fill="#000" fill-opacity=".383" d="M4 69h61c2.667 0 4.333-1 5-3v4H0v-4c.667 2 2 3 4 3z"/><use fill="#000" fill-rule="nonzero" opacity=".345" xlink:href="#e"/><path fill="#FFF" fill-rule="nonzero" d="M29.815 43.437c-3.046 0-5.917-.554-8.438-1.533-2.542 2.013-5.66 3.24-8.974 3.592a.67.67 0 0 1-.722-.493c-.079-.325.17-.525.416-.763 1.217-1.185 2.692-2.116 3.268-6.095-2.32-2.252-3.698-5.063-3.698-8.114 0-7.405 8.126-13.406 18.148-13.406s18.148 6.001 18.148 13.406c0 7.41-8.126 13.406-18.148 13.406zm28.119 8.792c-1.13-1.077-2.5-1.923-3.035-5.54 5.574-5.297 4.227-12.874-3.053-16.986.003.11.006.218.006.328 0 10.049-10.499 17.751-23.03 17.327 3.089 2.54 7.615 4.142 12.66 4.142 2.828 0 5.493-.504 7.834-1.395 2.36 1.831 5.257 2.947 8.333 3.266a.623.623 0 0 0 .67-.448c.074-.295-.157-.477-.385-.694z"/></g></g></svg>