<svg xmlns="http://www.w3.org/2000/svg" xmlns:xlink="http://www.w3.org/1999/xlink" width="70" height="70" viewBox="0 0 70 70"><defs><path id="a" d="M4 0h61c4 0 5 1 5 5v60c0 4-1 5-5 5H4c-3 0-4-1-4-5V5c0-4 1-5 4-5z"/><linearGradient id="c" x1="100%" x2="0%" y1="0%" y2="100%"><stop offset="0%" stop-color="#CDC484"/><stop offset="100%" stop-color="#B5AA59"/></linearGradient><path id="d" d="M28.384 37.708h-3.482c-.575 0-1.045-.457-1.045-1.015v-3.386c0-.558.47-1.015 1.045-1.015h3.482c.574 0 1.045.457 1.045 1.015v3.386c0 .558-.47 1.015-1.045 1.015zm9.402-1.015v-3.386c0-.558-.47-1.015-1.045-1.015H33.26c-.575 0-1.045.457-1.045 1.015v3.386c0 .558.47 1.015 1.045 1.015h3.482c.575 0 1.045-.457 1.045-1.015zm8.357 0v-3.386c0-.558-.47-1.015-1.045-1.015h-3.482c-.574 0-1.045.457-1.045 1.015v3.386c0 .558.47 1.015 1.045 1.015h3.482c.575 0 1.045-.457 1.045-1.015zm-8.357 8.125v-3.386c0-.558-.47-1.015-1.045-1.015H33.26c-.575 0-1.045.457-1.045 1.015v3.386c0 .558.47 1.015 1.045 1.015h3.482c.575 0 1.045-.457 1.045-1.015zm-8.357 0v-3.386c0-.558-.47-1.015-1.045-1.015h-3.482c-.575 0-1.045.457-1.045 1.015v3.386c0 .558.47 1.015 1.045 1.015h3.482c.574 0 1.045-.457 1.045-1.015zm16.714 0v-3.386c0-.558-.47-1.015-1.045-1.015h-3.482c-.574 0-1.045.457-1.045 1.015v3.386c0 .558.47 1.015 1.045 1.015h3.482c.575 0 1.045-.457 1.045-1.015zM54.5 22.813v29.791c0 2.243-1.872 4.063-4.179 4.063H19.68c-2.307 0-4.179-1.82-4.179-4.063V22.813c0-2.243 1.872-4.063 4.179-4.063h4.178v-4.401c0-.559.47-1.016 1.045-1.016h3.482c.574 0 1.045.457 1.045 1.016v4.401H40.57v-4.401c0-.559.47-1.016 1.045-1.016h3.482c.575 0 1.045.457 1.045 1.016v4.401h4.178c2.307 0 4.179 1.82 4.179 4.063zm-4.179 29.283V26.875H19.68v25.221c0 .28.235.508.522.508h29.598a.517.517 0 0 0 .522-.508z"/></defs><g fill="none" fill-rule="evenodd"><mask id="b" fill="#fff"><use xlink:href="#a"/></mask><g mask="url(#b)"><path fill="url(#c)" d="M0 0H70V70H0z"/><path fill="#FFF" fill-opacity=".383" d="M4 1h61c2.667 0 4.333.667 5 2V0H0v3c.667-1.333 2-2 4-2z"/><path fill="#393939" d="M43.48 70H3.977C1.988 70 0 69.852 0 65.857V40.742L18.194 18.71l2.76-.959 4.601-4.792h3.68l.92 8.626L42.119 12h3.68l.92 6.71h5.522L55 53.217 43.48 70z" opacity=".324"/><path fill="#000" fill-opacity=".383" d="M4 69h61c2.667 0 4.333-1 5-3v4H0v-4c.667 2 2 3 4 3z"/><use fill="#000" fill-rule="nonzero" opacity=".35" xlink:href="#d"/><path fill="#FFF" fill-rule="nonzero" d="M28.384 35.708h-3.482c-.575 0-1.045-.457-1.045-1.015v-3.386c0-.558.47-1.015 1.045-1.015h3.482c.574 0 1.045.457 1.045 1.015v3.386c0 .558-.47 1.015-1.045 1.015zm9.402-1.015v-3.386c0-.558-.47-1.015-1.045-1.015H33.26c-.575 0-1.045.457-1.045 1.015v3.386c0 .558.47 1.015 1.045 1.015h3.482c.575 0 1.045-.457 1.045-1.015zm8.357 0v-3.386c0-.558-.47-1.015-1.045-1.015h-3.482c-.574 0-1.045.457-1.045 1.015v3.386c0 .558.47 1.015 1.045 1.015h3.482c.575 0 1.045-.457 1.045-1.015zm-8.357 8.125v-3.386c0-.558-.47-1.015-1.045-1.015H33.26c-.575 0-1.045.457-1.045 1.015v3.386c0 .558.47 1.015 1.045 1.015h3.482c.575 0 1.045-.457 1.045-1.015zm-8.357 0v-3.386c0-.558-.47-1.015-1.045-1.015h-3.482c-.575 0-1.045.457-1.045 1.015v3.386c0 .558.47 1.015 1.045 1.015h3.482c.574 0 1.045-.457 1.045-1.015zm16.714 0v-3.386c0-.558-.47-1.015-1.045-1.015h-3.482c-.574 0-1.045.457-1.045 1.015v3.386c0 .558.47 1.015 1.045 1.015h3.482c.575 0 1.045-.457 1.045-1.015zM54.5 20.813v29.791c0 2.243-1.872 4.063-4.179 4.063H19.68c-2.307 0-4.179-1.82-4.179-4.063V20.813c0-2.243 1.872-4.063 4.179-4.063h4.178v-4.401c0-.559.47-1.016 1.045-1.016h3.482c.574 0 1.045.457 1.045 1.016v4.401H40.57v-4.401c0-.559.47-1.016 1.045-1.016h3.482c.575 0 1.045.457 1.045 1.016v4.401h4.178c2.307 0 4.179 1.82 4.179 4.063zm-4.179 29.283V24.875H19.68v25.221c0 .28.235.508.522.508h29.598a.517.517 0 0 0 .522-.508z"/></g></g></svg>