<svg width="70" height="70" viewBox="0 0 70 70" xmlns="http://www.w3.org/2000/svg" xmlns:xlink="http://www.w3.org/1999/xlink"><title>icon</title><defs><path d="M4 0h61c4 0 5 1 5 5v60c0 4-1 5-5 5H4c-3 0-4-1-4-5V5c0-4 1-5 4-5z" id="a"/><linearGradient x1="73.828%" y1="13.431%" x2="11.498%" y2="62.895%" id="c"><stop stop-color="#81D9DD" offset="0%"/><stop stop-color="#419CA1" offset="100%"/></linearGradient></defs><g fill="none" fill-rule="evenodd"><mask id="b" fill="#fff"><use xlink:href="#a"/></mask><g mask="url(#b)" fill-rule="nonzero"><g transform="translate(13 10)"><path d="M44.22 12.455L22.775.074a.55.55 0 0 0-.55 0L.78 12.454a.55.55 0 0 0-.275.477v24.762c0 .198.105.38.275.477l21.445 12.382a.552.552 0 0 0 .55 0L44.22 38.17a.549.549 0 0 0 .275-.477V12.93a.548.548 0 0 0-.274-.476zM1.606 37.285v-23.4l20.264 11.7.08.139v23.4L1.685 37.42l-.08-.137zM22.58 1.231l20.264 11.7-20.265 11.7h-.159l-20.265-11.7 20.265-11.7h.16zm.47 24.49l.081-.137 20.263-11.7v23.4l-.08.138L23.051 49.12V25.723z" fill="url(#c)"/><path fill="#5BB4B9" opacity=".288" d="M22 21.878H23V23.254H22z"/><path fill="#5BB4B9" opacity=".288" d="M22 10.867H23V12.243H22z"/><path fill="#5BB4B9" opacity=".288" d="M22 19.126H23V20.502000000000002H22z"/><path fill="#5BB4B9" opacity=".288" d="M22 13.62H23V14.995999999999999H22z"/><path fill="#5BB4B9" opacity=".288" d="M22 2.608H23V3.984H22z"/><path fill="#5BB4B9" opacity=".288" d="M22 5.361H23V6.737H22z"/><path fill="#5BB4B9" opacity=".288" d="M22 8.114H23V9.49H22z"/><path fill="#5BB4B9" opacity=".288" d="M22 16.373H23V17.749000000000002H22z"/><path fill="#5BB4B9" opacity=".288" transform="rotate(-119.993 15.19 29.437)" d="M14.94 28.749H15.94V30.125H14.94z"/><path fill="#5BB4B9" opacity=".288" transform="rotate(-119.993 12.81 30.814)" d="M12.56 30.125H13.56V31.501H12.56z"/><path fill="#5BB4B9" opacity=".288" transform="rotate(-120.014 10.423 32.19)" d="M10.173 31.501H11.173V32.878H10.173z"/><path fill="#5BB4B9" opacity=".288" transform="rotate(-119.975 19.957 26.686)" d="M19.707 25.998H20.707V27.374000000000002H19.707z"/><path fill="#5BB4B9" opacity=".288" transform="rotate(-120.014 17.575 28.06)" d="M17.325 27.372H18.325V28.749H17.325z"/><path fill="#5BB4B9" opacity=".288" transform="rotate(-120.014 3.271 36.32)" d="M3.021 35.631H4.021V37.007H3.021z"/><path fill="#5BB4B9" opacity=".288" transform="rotate(-120.001 8.037 33.564)" d="M7.787 32.876H8.786999999999999V34.251999999999995H7.787z"/><path fill="#5BB4B9" opacity=".288" transform="rotate(-119.993 5.658 34.944)" d="M5.408 34.256H6.408V35.632H5.408z"/><path fill="#5BB4B9" opacity=".288" transform="rotate(-149.999 32.032 30.653)" d="M31.344 30.403H32.72V31.403H31.344z"/><path fill="#5BB4B9" opacity=".288" transform="rotate(-149.994 27.263 27.898)" d="M26.576 27.648H27.951V28.648H26.576z"/><path fill="#5BB4B9" opacity=".288" transform="rotate(-150.028 29.646 29.272)" d="M28.957 29.022H30.333000000000002V30.022H28.957z"/><path fill="#5BB4B9" opacity=".288" transform="rotate(-59.974 41.41 36.046)" d="M41.159 35.631H42.159V36.631H41.159z"/><path fill="#5BB4B9" opacity=".288" transform="rotate(-149.979 24.88 26.524)" d="M24.192 26.274H25.569V27.274H24.192z"/><path fill="#5BB4B9" opacity=".288" transform="rotate(-149.979 36.796 33.405)" d="M36.108 33.155H37.485V34.155H36.108z"/><path fill="#5BB4B9" opacity=".288" transform="rotate(-149.999 39.185 34.782)" d="M38.497 34.532H39.873V35.532H38.497z"/><path fill="#5BB4B9" opacity=".288" transform="rotate(-150.02 34.416 32.029)" d="M33.728 31.779H35.104V32.778999999999996H33.728z"/></g></g></g></svg>