<svg xmlns="http://www.w3.org/2000/svg" xmlns:xlink="http://www.w3.org/1999/xlink" width="70" height="70" viewBox="0 0 70 70"><defs><path id="a" d="M4 0h61c4 0 5 1 5 5v60c0 4-1 5-5 5H4c-3 0-4-1-4-5V5c0-4 1-5 4-5z"/><linearGradient id="c" x1="100%" x2="0%" y1="0%" y2="100%"><stop offset="0%" stop-color="#B06161"/><stop offset="45.785%" stop-color="#984E4E"/><stop offset="100%" stop-color="#7C3838"/></linearGradient></defs><g fill="none" fill-rule="evenodd"><mask id="b" fill="#fff"><use xlink:href="#a"/></mask><g mask="url(#b)"><path fill="url(#c)" d="M0 0H70V70H0z"/><path fill="#FFF" fill-opacity=".383" d="M4 1h61c2.667 0 4.333.667 5 2V0H0v3c.667-1.333 2-2 4-2z"/><path fill="#393939" d="M4 69c-2 0-4-1-4-4V40.367L25 20l10-4 10 5v11l11 5v12L40.878 69H4z" opacity=".324"/><path fill="#000" fill-opacity=".383" d="M4 69h61c2.667 0 4.333-1 5-3v4H0v-4c.667 2 2 3 4 3z"/><path fill="#000" fill-rule="nonzero" d="M55.963 37.318a.838.838 0 0 0-.084-.174v-.026a.885.885 0 0 0-.149-.164l-.042-.035a.941.941 0 0 0-.172-.104h-.023l-9.49-4.074V22.125a.81.81 0 0 0-.033-.22v-.053a.838.838 0 0 0-.084-.173v-.026a.885.885 0 0 0-.149-.164l-.041-.035a.941.941 0 0 0-.173-.104H45.5l-10.09-4.33a.994.994 0 0 0-.778 0l-10.085 4.33h-.024a.941.941 0 0 0-.172.104l-.042.035a.885.885 0 0 0-.149.164v.026a.838.838 0 0 0-.083.173v.052a.81.81 0 0 0-.033.221v10.616l-9.541 4.061h-.023a.941.941 0 0 0-.173.104l-.041.035a.885.885 0 0 0-.15.164v.026a.838.838 0 0 0-.083.174v.052a.81.81 0 0 0-.033.22v11.227a.86.86 0 0 0 .503.788l10.086 4.33c.246.105.53.105.777 0l9.615-4.131 9.625 4.126c.247.106.531.106.778 0l10.076-4.325c.33-.142.54-.45.54-.788V37.59a.81.81 0 0 0-.033-.22l-.004-.052zm-30.997 3.645L17.1 37.59l7.74-3.316 7.866 3.355-7.74 3.334zm9.085 7.321l-8.155 3.494V42.47l8.155-3.494v9.308zm.93-22.777l-7.865-3.382 7.865-3.373 7.866 3.373-7.866 3.382zm.931 1.506l8.229-3.528v9.308l-8.229 3.537v-9.317zm9.085 13.95l-7.744-3.334 7.865-3.372 7.74 3.316-7.86 3.39zm9.155 7.287l-8.224 3.528V42.47l8.224-3.542v9.322z" opacity=".3"/><path fill="#FFF" fill-rule="nonzero" d="M55.963 35.457a.838.838 0 0 0-.084-.173v-.026a.885.885 0 0 0-.149-.165l-.042-.034a.941.941 0 0 0-.172-.104h-.023l-9.49-4.074V20.265a.81.81 0 0 0-.033-.221v-.052a.838.838 0 0 0-.084-.173v-.026a.885.885 0 0 0-.149-.165l-.041-.034a.941.941 0 0 0-.173-.104H45.5l-10.09-4.33a.994.994 0 0 0-.778 0l-10.085 4.33h-.024a.941.941 0 0 0-.172.104l-.042.034a.885.885 0 0 0-.149.165v.026a.838.838 0 0 0-.083.173v.052a.81.81 0 0 0-.033.22v10.617l-9.541 4.06h-.023a.941.941 0 0 0-.173.105l-.041.034a.885.885 0 0 0-.15.165v.026a.838.838 0 0 0-.083.173v.052a.81.81 0 0 0-.033.22v11.227a.86.86 0 0 0 .503.788l10.086 4.33c.246.105.53.105.777 0l9.615-4.13 9.625 4.126c.247.105.531.105.778 0L55.46 47.73c.33-.142.54-.45.54-.788V35.73a.81.81 0 0 0-.033-.221l-.004-.052zm-30.997 3.646L17.1 35.73l7.74-3.317 7.866 3.356-7.74 3.334zm9.085 7.32l-8.155 3.495v-9.309l8.155-3.494v9.309zm.93-22.777l-7.865-3.381 7.865-3.373 7.866 3.373-7.866 3.381zm.931 1.507l8.229-3.529v9.309l-8.229 3.537v-9.317zm9.085 13.95l-7.744-3.334 7.865-3.373 7.74 3.317-7.86 3.39zm9.155 7.286l-8.224 3.529v-9.309l8.224-3.541v9.321z"/></g></g></svg>