<svg xmlns="http://www.w3.org/2000/svg" xmlns:xlink="http://www.w3.org/1999/xlink" width="70" height="70" viewBox="0 0 70 70"><defs><path id="a" d="M4 0h61c4 0 5 1 5 5v60c0 4-1 5-5 5H4c-3 0-4-1-4-5V5c0-4 1-5 4-5z"/><linearGradient id="c" x1="100%" x2="0%" y1="0%" y2="100%"><stop offset="0%" stop-color="#CDC484"/><stop offset="100%" stop-color="#B5AA59"/></linearGradient><path id="d" d="M50.364 39.856l3.468 2.002c.396.229.58.702.444 1.138a20.15 20.15 0 0 1-4.45 7.698.978.978 0 0 1-1.208.183l-3.465-2.001a15.59 15.59 0 0 1-4.945 2.859v4.002a.977.977 0 0 1-.763.954c-2.845.639-5.9.672-8.888 0a.979.979 0 0 1-.765-.954v-4.002a15.589 15.589 0 0 1-4.945-2.86l-3.465 2.002a.978.978 0 0 1-1.207-.183 20.152 20.152 0 0 1-4.451-7.698.978.978 0 0 1 .444-1.138l3.468-2.002a15.745 15.745 0 0 1 0-5.712l-3.468-2.002a.978.978 0 0 1-.444-1.138 20.15 20.15 0 0 1 4.45-7.698.978.978 0 0 1 1.208-.183l3.465 2.001a15.59 15.59 0 0 1 4.945-2.859v-4.002c0-.457.317-.853.763-.954 2.845-.639 5.9-.672 8.888 0 .447.1.765.496.765.954v4.002c1.81.64 3.487 1.61 4.945 2.86l3.465-2.002a.978.978 0 0 1 1.207.183 20.152 20.152 0 0 1 4.451 7.698.978.978 0 0 1-.444 1.138l-3.468 2.002a15.746 15.746 0 0 1 0 5.712zM41.51 37c0-3.59-2.92-6.51-6.51-6.51s-6.51 2.92-6.51 6.51 2.92 6.51 6.51 6.51 6.51-2.92 6.51-6.51z"/><path id="e" d="M50.364 37.856l3.468 2.002c.396.229.58.702.444 1.138a20.15 20.15 0 0 1-4.45 7.698.978.978 0 0 1-1.208.183l-3.465-2.001a15.59 15.59 0 0 1-4.945 2.859v4.002a.977.977 0 0 1-.763.954c-2.845.639-5.9.672-8.888 0a.979.979 0 0 1-.765-.954v-4.002a15.589 15.589 0 0 1-4.945-2.86l-3.465 2.002a.978.978 0 0 1-1.207-.183 20.152 20.152 0 0 1-4.451-7.698.978.978 0 0 1 .444-1.138l3.468-2.002a15.745 15.745 0 0 1 0-5.712l-3.468-2.002a.978.978 0 0 1-.444-1.138 20.15 20.15 0 0 1 4.45-7.698.978.978 0 0 1 1.208-.183l3.465 2.001a15.59 15.59 0 0 1 4.945-2.859v-4.002c0-.457.317-.853.763-.954 2.845-.639 5.9-.672 8.888 0 .447.1.765.496.765.954v4.002c1.81.64 3.487 1.61 4.945 2.86l3.465-2.002a.978.978 0 0 1 1.207.183 20.152 20.152 0 0 1 4.451 7.698.978.978 0 0 1-.444 1.138l-3.468 2.002a15.746 15.746 0 0 1 0 5.712zM41.51 35c0-3.59-2.92-6.51-6.51-6.51s-6.51 2.92-6.51 6.51 2.92 6.51 6.51 6.51 6.51-2.92 6.51-6.51z"/></defs><g fill="none" fill-rule="evenodd"><mask id="b" fill="#fff"><use xlink:href="#a"/></mask><g mask="url(#b)"><path fill="url(#c)" d="M0 0H70V70H0z"/><path fill="#FFF" fill-opacity=".383" d="M4 1h61c2.667 0 4.333.667 5 2V0H0v3c.667-1.333 2-2 4-2z"/><path fill="#393939" d="M4 69c-2 0-4-1-4-4V40.367L21 21l1.114 1.571L30 16l11 15 13-1-5 8 5 3-13.122 28H4z" opacity=".324"/><path fill="#000" fill-opacity=".383" d="M4 69h61c2.667 0 4.333-1 5-3v4H0v-4c.667 2 2 3 4 3z"/><use fill="#000" fill-rule="nonzero" opacity=".3" xlink:href="#d"/><use fill="#FFF" fill-rule="nonzero" xlink:href="#e"/></g></g></svg>