<svg xmlns="http://www.w3.org/2000/svg" xmlns:xlink="http://www.w3.org/1999/xlink" width="70" height="70" viewBox="0 0 70 70"><defs><path id="a" d="M4 0h61c4 0 5 1 5 5v60c0 4-1 5-5 5H4c-3 0-4-1-4-5V5c0-4 1-5 4-5z"/><linearGradient id="c" x1="98.162%" x2="0%" y1="1.838%" y2="100%"><stop offset="0%" stop-color="#797DA5"/><stop offset="50.799%" stop-color="#6D7194"/><stop offset="100%" stop-color="#626584"/></linearGradient><path id="d" d="M21.288 40.249a4.063 4.063 0 0 1 2.956-2.956l3.018-.754c2.463 1.771 6.306 2.28 9.476 0l3.018.754a4.063 4.063 0 0 1 3.077 3.941v.062a14.247 14.247 0 0 0 3.977-9.897c0-7.906-6.398-14.293-14.293-14.293-7.907 0-14.294 6.398-14.294 14.293 0 3.344 1.145 6.417 3.065 8.85zM57.6 51.316a2.043 2.043 0 0 1-.009 2.88l-2.398 2.398a2.025 2.025 0 0 1-2.872 0l-8.448-8.447a2.032 2.032 0 0 1-.593-1.44v-1.381a17.539 17.539 0 0 1-10.846 3.728c-9.735 0-17.624-7.888-17.624-17.623 0-9.734 7.889-17.622 17.624-17.622 9.736 0 17.625 7.888 17.625 17.622 0 4.092-1.39 7.854-3.729 10.845h1.382c.542 0 1.059.212 1.44.593l8.448 8.447zM32 23.166a6.77 6.77 0 1 1 0 13.542 6.77 6.77 0 0 1 0-13.541z"/><path id="e" d="M21.288 38.249a4.063 4.063 0 0 1 2.956-2.956l3.018-.754c2.463 1.771 6.306 2.28 9.476 0l3.018.754a4.063 4.063 0 0 1 3.077 3.941v.062a14.247 14.247 0 0 0 3.977-9.897c0-7.906-6.398-14.293-14.293-14.293-7.907 0-14.294 6.398-14.294 14.293 0 3.344 1.145 6.417 3.065 8.85zM57.6 49.316a2.043 2.043 0 0 1-.009 2.88l-2.398 2.398a2.025 2.025 0 0 1-2.872 0l-8.448-8.447a2.032 2.032 0 0 1-.593-1.44v-1.381a17.539 17.539 0 0 1-10.846 3.728c-9.735 0-17.624-7.888-17.624-17.623 0-9.734 7.889-17.622 17.624-17.622 9.736 0 17.625 7.888 17.625 17.622 0 4.092-1.39 7.854-3.729 10.845h1.382c.542 0 1.059.212 1.44.593l8.448 8.447zM32 21.166a6.77 6.77 0 1 1 0 13.542 6.77 6.77 0 0 1 0-13.541z"/></defs><g fill="none" fill-rule="evenodd"><mask id="b" fill="#fff"><use xlink:href="#a"/></mask><g mask="url(#b)"><path fill="url(#c)" d="M0 0H70V70H0z"/><path fill="#FFF" fill-opacity=".383" d="M4 1h61c2.667 0 4.333.667 5 2V0H0v3c.667-1.333 2-2 4-2z"/><path fill="#393939" d="M44.79 70H4c-2 0-4-.148-4-4.145V41.152l20.372-24.007L30 13l10 2.073 8 8.29 1 9.328-5 8.29 13 12.437L44.79 70z" opacity=".324"/><path fill="#000" fill-opacity=".383" d="M4 69h61c2.667 0 4.333-1 5-3v4H0v-4c.667 2 2 3 4 3z"/><use fill="#000" fill-rule="nonzero" opacity=".3" xlink:href="#d"/><use fill="#FFF" fill-rule="nonzero" xlink:href="#e"/></g></g></svg>