<svg xmlns="http://www.w3.org/2000/svg" xmlns:xlink="http://www.w3.org/1999/xlink" width="70" height="70" viewBox="0 0 70 70"><defs><path id="a" d="M4 0h61c4 0 5 1 5 5v60c0 4-1 5-5 5H4c-3 0-4-1-4-5V5c0-4 1-5 4-5z"/><linearGradient id="c" x1="100%" x2="0%" y1="0%" y2="100%"><stop offset="0%" stop-color="#DA956B"/><stop offset="100%" stop-color="#CC7039"/></linearGradient><path id="d" d="M30.484 22.018L43 33c-4 4.354-5.667 9.354-5 15L21.074 32.468l9.41-10.45zm12.038 34.82c-1.314 1.277-3.393 1.349-4.751.125L12.089 33.84c-1.418-1.277-1.515-3.482-.215-4.925l4.704-5.226c1.419 1.278 3.622 1.143 4.921-.3 1.3-1.443 1.203-3.648-.216-4.925l4.705-5.225c1.3-1.443 3.502-1.577 4.92-.3L49.936 30.07a11.06 11.06 0 0 0-5.297 1.538L31.624 19.891c-.709-.639-1.81-.572-2.46.15L18.97 31.362c-.65.722-.601 1.824.108 2.463L37.055 50.01c.471.424 1.115.537 1.685.354.75 2.574 2.048 4.807 3.782 6.474zm5.206-15.74C47.728 44.478 58 43.62 58 50.048c0 3.08-2.25 5.71-5.903 6.259v2.547a.656.656 0 0 1-.667.645h-2.224a.656.656 0 0 1-.667-.645v-2.59c-2.196-.36-4.153-1.34-5.49-2.576a.629.629 0 0 1-.072-.851l1.69-2.184a.683.683 0 0 1 .953-.115c1.385 1.074 3.174 1.927 4.884 1.927 1.991 0 2.898-1.146 2.898-2.21 0-3.148-10.272-2.465-10.272-9.1 0-2.832 2.15-5.121 5.41-5.835v-2.676c0-.356.298-.645.666-.645h2.224c.369 0 .667.289.667.645v2.537c1.788.2 3.726.877 5.075 2.03.232.199.29.526.144.789l-1.31 2.339a.68.68 0 0 1-.977.216c-1.242-.863-2.765-1.522-4.25-1.522-1.854 0-3.05.81-3.05 2.063z"/><path id="e" d="M30.484 20.018L43 31c-4 4.354-5.667 9.354-5 15L21.074 30.468l9.41-10.45zm12.038 34.82c-1.314 1.277-3.393 1.349-4.751.125L12.089 31.84c-1.418-1.277-1.515-3.482-.215-4.925l4.704-5.226c1.419 1.278 3.622 1.143 4.921-.3 1.3-1.443 1.203-3.648-.216-4.925l4.705-5.225c1.3-1.443 3.502-1.577 4.92-.3L49.936 28.07a11.06 11.06 0 0 0-5.297 1.538L31.624 17.891c-.709-.639-1.81-.572-2.46.15L18.97 29.362c-.65.722-.601 1.824.108 2.463L37.055 48.01c.471.424 1.115.537 1.685.354.75 2.574 2.048 4.807 3.782 6.474zm5.206-15.74C47.728 42.478 58 41.62 58 48.048c0 3.08-2.25 5.71-5.903 6.259v2.547a.656.656 0 0 1-.667.645h-2.224a.656.656 0 0 1-.667-.645v-2.59c-2.196-.36-4.153-1.34-5.49-2.576a.629.629 0 0 1-.072-.851l1.69-2.184a.683.683 0 0 1 .953-.115c1.385 1.074 3.174 1.927 4.884 1.927 1.991 0 2.898-1.146 2.898-2.21 0-3.148-10.272-2.465-10.272-9.1 0-2.832 2.15-5.121 5.41-5.835v-2.676c0-.356.298-.645.666-.645h2.224c.369 0 .667.289.667.645v2.537c1.788.2 3.726.877 5.075 2.03.232.199.29.526.144.789l-1.31 2.339a.68.68 0 0 1-.977.216c-1.242-.863-2.765-1.522-4.25-1.522-1.854 0-3.05.81-3.05 2.063z"/></defs><g fill="none" fill-rule="evenodd"><mask id="b" fill="#fff"><use xlink:href="#a"/></mask><g mask="url(#b)"><path fill="url(#c)" d="M0 0H70V70H0z"/><path fill="#FFF" fill-opacity=".383" d="M4 1h61c2.667 0 4.333.667 5 2V0H0v3c.667-1.333 2-2 4-2z"/><path fill="#393939" d="M43.714 70H4c-2 0-4-.148-4-4.15V42.622l12-14.132L24 15l13 3.113 9 8.302 6 5.189v3.113l5 2.075-6 7.265 7 7.264-5 5.188L43.714 70z" opacity=".324"/><path fill="#000" fill-opacity=".383" d="M4 69h61c2.667 0 4.333-1 5-3v4H0v-4c.667 2 2 3 4 3z"/><use fill="#000" fill-rule="nonzero" opacity=".3" xlink:href="#d"/><use fill="#FFF" fill-rule="nonzero" xlink:href="#e"/></g></g></svg>