<svg xmlns="http://www.w3.org/2000/svg" xmlns:xlink="http://www.w3.org/1999/xlink" width="70" height="70" viewBox="0 0 70 70"><defs><path id="a" d="M4 0h61c4 0 5 1 5 5v60c0 4-1 5-5 5H4c-3 0-4-1-4-5V5c0-4 1-5 4-5z"/><linearGradient id="c" x1="100%" x2="0%" y1="0%" y2="98.616%"><stop offset="0%" stop-color="#797C79"/><stop offset="100%" stop-color="#545554"/></linearGradient><path id="d" d="M29.278 17.235c5.193 0 9.404 4.271 9.404 9.54 0 5.27-4.21 9.541-9.404 9.541s-9.404-4.271-9.404-9.54c0-5.27 4.21-9.541 9.404-9.541zm13.515 20.612c0 3.382 10.321 2.524 10.321 8.952 0 3.08-2.26 5.71-5.93 6.259v2.547c0 .356-.3.645-.671.645h-2.234a.658.658 0 0 1-.67-.645v-2.59c-2.207-.36-4.174-1.34-5.517-2.576a.626.626 0 0 1-.073-.851l1.698-2.184a.689.689 0 0 1 .958-.115c1.392 1.074 3.19 1.927 4.907 1.927 2.001 0 2.912-1.146 2.912-2.21 0-3.148-10.32-2.465-10.32-9.1 0-2.832 2.16-5.121 5.434-5.835v-2.676c0-.356.3-.645.67-.645h2.235c.37 0 .67.289.67.645v2.537c1.796.2 3.743.877 5.1 2.03a.627.627 0 0 1 .143.789l-1.315 2.339a.685.685 0 0 1-.982.216c-1.248-.863-2.778-1.522-4.27-1.522-1.863 0-3.066.81-3.066 2.063zm-7.497-1.12c0-.413-9.178 1.847-12.6-.65l-4.19 1.063c-2.512.638-4.275 2.927-4.275 5.554v2.209c0 1.58 1.264 2.862 2.822 2.862H35c-1.852-6.34.296-10.625.296-11.038z"/><path id="e" d="M29.278 15.235c5.193 0 9.404 4.271 9.404 9.54 0 5.27-4.21 9.541-9.404 9.541s-9.404-4.271-9.404-9.54c0-5.27 4.21-9.541 9.404-9.541zm13.515 20.612c0 3.382 10.321 2.524 10.321 8.952 0 3.08-2.26 5.71-5.93 6.259v2.547c0 .356-.3.645-.671.645h-2.234a.658.658 0 0 1-.67-.645v-2.59c-2.207-.36-4.174-1.34-5.517-2.576a.626.626 0 0 1-.073-.851l1.698-2.184a.689.689 0 0 1 .958-.115c1.392 1.074 3.19 1.927 4.907 1.927 2.001 0 2.912-1.146 2.912-2.21 0-3.148-10.32-2.465-10.32-9.1 0-2.832 2.16-5.121 5.434-5.835v-2.676c0-.356.3-.645.67-.645h2.235c.37 0 .67.289.67.645v2.537c1.796.2 3.743.877 5.1 2.03a.627.627 0 0 1 .143.789l-1.315 2.339a.685.685 0 0 1-.982.216c-1.248-.863-2.778-1.522-4.27-1.522-1.863 0-3.066.81-3.066 2.063zm-7.497-1.12c0-.413-9.178 1.847-12.6-.65l-4.19 1.063c-2.512.638-4.275 2.927-4.275 5.554v2.209c0 1.58 1.264 2.862 2.822 2.862H35c-1.852-6.34.296-10.625.296-11.038z"/></defs><g fill="none" fill-rule="evenodd"><mask id="b" fill="#fff"><use xlink:href="#a"/></mask><g mask="url(#b)"><path fill="url(#c)" d="M0 0H70V70H0z"/><path fill="#FFF" fill-opacity=".383" d="M4 1h61c2.667 0 4.333.667 5 2V0H0v3c.667-1.333 2-2 4-2z"/><path fill="#393939" d="M40.28 69H4c-2 0-4-.144-4-4.041V42.625L22.687 19 37 20.508l-7 18.185 14.738-10.926L51 33.641l-6 7.072 7 7.072L40.28 69z" opacity=".324"/><path fill="#000" fill-opacity=".383" d="M4 69h61c2.667 0 4.333-1 5-3v4H0v-4c.667 2 2 3 4 3z"/><use fill="#000" fill-rule="nonzero" opacity=".3" xlink:href="#d"/><use fill="#FFF" fill-rule="nonzero" xlink:href="#e"/></g></g></svg>