<svg xmlns="http://www.w3.org/2000/svg" xmlns:xlink="http://www.w3.org/1999/xlink" width="70" height="70" viewBox="0 0 70 70"><defs><path id="a" d="M4 0h61c4 0 5 1 5 5v60c0 4-1 5-5 5H4c-3 0-4-1-4-5V5c0-4 1-5 4-5z"/><linearGradient id="c" x1="100%" x2="0%" y1="0%" y2="100%"><stop offset="0%" stop-color="#269396"/><stop offset="100%" stop-color="#218689"/></linearGradient><path id="d" d="M24.472 29.356H47.62V43.42H24.472V29.356zm28.935 7.031c0 1.942 1.554 3.516 3.472 3.516v7.031c0 1.942-1.555 3.516-3.472 3.516H18.685c-1.918 0-3.473-1.574-3.473-3.516v-7.031c1.918 0 3.473-1.574 3.473-3.516 0-1.941-1.555-3.515-3.473-3.515V25.84c0-1.942 1.555-3.516 3.473-3.516h34.722c1.917 0 3.472 1.574 3.472 3.516v7.03c-1.918 0-3.472 1.575-3.472 3.516zm-3.472-7.617c0-.97-.778-1.758-1.737-1.758H23.893c-.959 0-1.736.787-1.736 1.758v15.235c0 .97.777 1.757 1.736 1.757h24.305c.96 0 1.737-.787 1.737-1.757V28.77z"/><path id="e" d="M24.472 27.356H47.62V41.42H24.472V27.356zm28.935 7.031c0 1.942 1.554 3.516 3.472 3.516v7.031c0 1.942-1.555 3.516-3.472 3.516H18.685c-1.918 0-3.473-1.574-3.473-3.516v-7.031c1.918 0 3.473-1.574 3.473-3.516 0-1.941-1.555-3.515-3.473-3.515V23.84c0-1.942 1.555-3.516 3.473-3.516h34.722c1.917 0 3.472 1.574 3.472 3.516v7.03c-1.918 0-3.472 1.575-3.472 3.516zm-3.472-7.617c0-.97-.778-1.758-1.737-1.758H23.893c-.959 0-1.736.787-1.736 1.758v15.235c0 .97.777 1.757 1.736 1.757h24.305c.96 0 1.737-.787 1.737-1.757V26.77z"/></defs><g fill="none" fill-rule="evenodd"><mask id="b" fill="#fff"><use xlink:href="#a"/></mask><g mask="url(#b)"><path fill="url(#c)" d="M0 0H70V70H0z"/><path fill="#FFF" fill-opacity=".383" d="M4 1h61c2.667 0 4.333.667 5 2V0H0v3c.667-1.333 2-2 4-2z"/><path fill="#393939" d="M41.2 70H4c-2 0-4-.148-4-4.143V42.96L29 12l8 8.286L58 41 41.2 70z" opacity=".324"/><path fill="#000" fill-opacity=".383" d="M4 69h61c2.667 0 4.333-1 5-3v4H0v-4c.667 2 2 3 4 3z"/><use fill="#000" fill-rule="nonzero" opacity=".3" transform="rotate(45 36.046 36.387)" xlink:href="#d"/><use fill="#FFF" fill-rule="nonzero" transform="rotate(45 36.046 34.387)" xlink:href="#e"/></g></g></svg>