<svg xmlns="http://www.w3.org/2000/svg" xmlns:xlink="http://www.w3.org/1999/xlink" width="70" height="70" viewBox="0 0 70 70"><defs><path id="a" d="M4 0h61c4 0 5 1 5 5v60c0 4-1 5-5 5H4c-3 0-4-1-4-5V5c0-4 1-5 4-5z"/><linearGradient id="c" x1="100%" x2="0%" y1="0%" y2="100%"><stop offset="0%" stop-color="#CD7690"/><stop offset="100%" stop-color="#CA5377"/></linearGradient><path id="d" d="M29.5 16.917a9.115 9.115 0 1 1 0 18.229 9.115 9.115 0 0 1 0-18.23zm8.897 29.166H17.65a2.734 2.734 0 0 1-2.734-2.734v-2.11a5.469 5.469 0 0 1 4.142-5.306l4.063-1.015c3.315 2.384 8.488 3.07 12.756 0l2.207.551c.421 3.255.386 7.579.312 10.614zM58.75 30.5c1.242 0 2.25 1.176 2.25 2.625v19.25C61 53.825 59.992 55 58.75 55h-16.5C41.008 55 40 53.824 40 52.375v-19.25c0-1.45 1.008-2.625 2.25-2.625h2.25v-2.844c0-.36.253-.656.563-.656h1.874c.31 0 .563.295.563.656V30.5h6v-2.844c0-.36.253-.656.563-.656h1.874c.31 0 .563.295.563.656V30.5h2.25zm-.281 21.875c.154 0 .281-.164.281-.365V33.857h-16.5V52.01c0 .2.127.365.281.365H58.47zm-9.363-10.99c0 1.537 5.316 1.147 5.316 4.07 0 1.399-1.164 2.594-3.055 2.844v1.158c0 .162-.154.293-.345.293H49.87c-.19 0-.346-.131-.346-.293V48.28c-1.136-.164-2.15-.61-2.841-1.171-.126-.103-.142-.269-.038-.387l.875-.993a.388.388 0 0 1 .494-.052c.717.488 1.643.876 2.527.876 1.031 0 1.5-.521 1.5-1.005 0-1.43-5.316-1.12-5.316-4.136 0-1.287 1.112-2.328 2.8-2.652v-1.217c0-.162.154-.293.345-.293h1.15c.192 0 .346.131.346.293v1.153c.925.091 1.928.399 2.627.923.12.09.15.24.074.359l-.678 1.063c-.099.155-.336.201-.505.098-.643-.392-1.431-.692-2.2-.692-.96 0-1.58.368-1.58.938z"/><path id="e" d="M29.5 14.917a9.115 9.115 0 1 1 0 18.229 9.115 9.115 0 0 1 0-18.23zm8.897 29.166H17.65a2.734 2.734 0 0 1-2.734-2.734v-2.11a5.469 5.469 0 0 1 4.142-5.306l4.063-1.015c3.315 2.384 8.488 3.07 12.756 0l2.207.551c.421 3.255.386 7.579.312 10.614zM58.75 28.5c1.242 0 2.25 1.176 2.25 2.625v19.25C61 51.825 59.992 53 58.75 53h-16.5C41.008 53 40 51.824 40 50.375v-19.25c0-1.45 1.008-2.625 2.25-2.625h2.25v-2.844c0-.36.253-.656.563-.656h1.874c.31 0 .563.295.563.656V28.5h6v-2.844c0-.36.253-.656.563-.656h1.874c.31 0 .563.295.563.656V28.5h2.25zm-.281 21.875c.154 0 .281-.164.281-.365V31.857h-16.5V50.01c0 .2.127.365.281.365H58.47zm-9.363-10.99c0 1.537 5.316 1.147 5.316 4.07 0 1.399-1.164 2.594-3.055 2.844v1.158c0 .162-.154.293-.345.293H49.87c-.19 0-.346-.131-.346-.293V46.28c-1.136-.164-2.15-.61-2.841-1.171-.126-.103-.142-.269-.038-.387l.875-.993a.388.388 0 0 1 .494-.052c.717.488 1.643.876 2.527.876 1.031 0 1.5-.521 1.5-1.005 0-1.43-5.316-1.12-5.316-4.136 0-1.287 1.112-2.328 2.8-2.652v-1.217c0-.162.154-.293.345-.293h1.15c.192 0 .346.131.346.293v1.153c.925.091 1.928.399 2.627.923.12.09.15.24.074.359l-.678 1.063c-.099.155-.336.201-.505.098-.643-.392-1.431-.692-2.2-.692-.96 0-1.58.368-1.58.938z"/></defs><g fill="none" fill-rule="evenodd"><mask id="b" fill="#fff"><use xlink:href="#a"/></mask><g mask="url(#b)"><path fill="url(#c)" d="M0 0H70V70H0z"/><path fill="#FFF" fill-opacity=".383" d="M4 1h61c2.667 0 4.333.667 5 2V0H0v3c.667-1.333 2-2 4-2z"/><path fill="#393939" d="M45.487 70H4c-2 0-4-.149-4-4.163V42.73L22 19l15 1.04-1 14.572 9-8.326 4 5.204 5-5.204 2 4.163h3v21.857L45.487 70z" opacity=".324"/><path fill="#000" fill-opacity=".383" d="M4 69h61c2.667 0 4.333-1 5-3v4H0v-4c.667 2 2 3 4 3z"/><use fill="#000" fill-rule="nonzero" opacity=".3" xlink:href="#d"/><use fill="#FFF" fill-rule="nonzero" xlink:href="#e"/></g></g></svg>