<svg xmlns="http://www.w3.org/2000/svg" xmlns:xlink="http://www.w3.org/1999/xlink" width="70" height="70" viewBox="0 0 70 70"><defs><path id="a" d="M4 0h61c4 0 5 1 5 5v60c0 4-1 5-5 5H4c-3 0-4-1-4-5V5c0-4 1-5 4-5z"/><linearGradient id="c" x1="100%" x2="0%" y1="0%" y2="100%"><stop offset="0%" stop-color="#CDC484"/><stop offset="100%" stop-color="#B5AA59"/></linearGradient><path id="d" d="M27.278 16.235c5.193 0 9.404 4.271 9.404 9.54 0 5.27-4.21 9.541-9.404 9.541s-9.404-4.271-9.404-9.54c0-5.27 4.21-9.541 9.404-9.541zM32 36c0-.413-7.882 1.574-11.303-.923l-4.192 1.063c-2.511.638-4.274 2.927-4.274 5.554v2.209c0 1.58 1.264 2.862 2.822 2.862h15.466C28.667 40.425 32 36.413 32 36zm16.512-6.57l1.37 3.35a.967.967 0 0 0 1.404.457l3.078-1.906c.832-.515 1.87.239 1.637 1.19l-.86 3.516a.967.967 0 0 0 .867 1.194l3.61.268c.976.072 1.372 1.292.626 1.924l-2.764 2.339a.967.967 0 0 0 0 1.476l2.764 2.339c.747.632.35 1.852-.626 1.924l-3.61.268a.967.967 0 0 0-.868 1.194l.861 3.517c.233.95-.805 1.704-1.637 1.19l-3.078-1.907a.967.967 0 0 0-1.404.457l-1.37 3.35c-.37.906-1.653.906-2.024 0l-1.37-3.35a.967.967 0 0 0-1.404-.457l-3.078 1.906c-.832.515-1.87-.239-1.637-1.19l.86-3.516a.967.967 0 0 0-.867-1.194l-3.61-.268c-.976-.072-1.372-1.292-.626-1.924l2.764-2.339a.967.967 0 0 0 0-1.476l-2.764-2.339c-.747-.632-.35-1.852.626-1.924l3.61-.268a.967.967 0 0 0 .868-1.194l-.861-3.517c-.233-.95.805-1.704 1.637-1.19l3.078 1.907a.967.967 0 0 0 1.404-.457l1.37-3.35c.37-.906 1.653-.906 2.024 0zm6.293 13.07c0-4.028-3.277-7.305-7.305-7.305s-7.305 3.277-7.305 7.305 3.277 7.305 7.305 7.305 7.305-3.277 7.305-7.305zm-1.72 0a5.592 5.592 0 0 1-5.585 5.586 5.592 5.592 0 0 1-5.586-5.586 5.592 5.592 0 0 1 5.586-5.586 5.592 5.592 0 0 1 5.586 5.586z"/><path id="e" d="M27.278 14.235c5.193 0 9.404 4.271 9.404 9.54 0 5.27-4.21 9.541-9.404 9.541s-9.404-4.271-9.404-9.54c0-5.27 4.21-9.541 9.404-9.541zM32 34c0-.413-7.882 1.574-11.303-.923l-4.192 1.063c-2.511.638-4.274 2.927-4.274 5.554v2.209c0 1.58 1.264 2.862 2.822 2.862h15.466C28.667 38.425 32 34.413 32 34zm16.512-6.57l1.37 3.35a.967.967 0 0 0 1.404.457l3.078-1.906c.832-.515 1.87.239 1.637 1.19l-.86 3.516a.967.967 0 0 0 .867 1.194l3.61.268c.976.072 1.372 1.292.626 1.924l-2.764 2.339a.967.967 0 0 0 0 1.476l2.764 2.339c.747.632.35 1.852-.626 1.924l-3.61.268a.967.967 0 0 0-.868 1.194l.861 3.517c.233.95-.805 1.704-1.637 1.19l-3.078-1.907a.967.967 0 0 0-1.404.457l-1.37 3.35c-.37.906-1.653.906-2.024 0l-1.37-3.35a.967.967 0 0 0-1.404-.457l-3.078 1.906c-.832.515-1.87-.239-1.637-1.19l.86-3.516a.967.967 0 0 0-.867-1.194l-3.61-.268c-.976-.072-1.372-1.292-.626-1.924l2.764-2.339a.967.967 0 0 0 0-1.476l-2.764-2.339c-.747-.632-.35-1.852.626-1.924l3.61-.268a.967.967 0 0 0 .868-1.194l-.861-3.517c-.233-.95.805-1.704 1.637-1.19l3.078 1.907a.967.967 0 0 0 1.404-.457l1.37-3.35c.37-.906 1.653-.906 2.024 0zm6.293 13.07c0-4.028-3.277-7.305-7.305-7.305s-7.305 3.277-7.305 7.305 3.277 7.305 7.305 7.305 7.305-3.277 7.305-7.305zm-1.72 0a5.592 5.592 0 0 1-5.585 5.586 5.592 5.592 0 0 1-5.586-5.586 5.592 5.592 0 0 1 5.586-5.586 5.592 5.592 0 0 1 5.586 5.586z"/></defs><g fill="none" fill-rule="evenodd"><mask id="b" fill="#fff"><use xlink:href="#a"/></mask><g mask="url(#b)"><path fill="url(#c)" d="M0 0H70V70H0z"/><path fill="#FFF" fill-opacity=".383" d="M4 1h61c2.667 0 4.333.667 5 2V0H0v3c.667-1.333 2-2 4-2z"/><path fill="#393939" d="M43.644 70H4c-2 0-4-.149-4-4.16V41.32L20 18l16 9.36-8 14.56 12-11.44 1.604 1.015L47 27.36l4 5.2 9 13.52L43.644 70z" opacity=".324"/><path fill="#000" fill-opacity=".383" d="M4 69h61c2.667 0 4.333-1 5-3v4H0v-4c.667 2 2 3 4 3z"/><use fill="#000" fill-rule="nonzero" opacity=".3" xlink:href="#d"/><use fill="#FFF" fill-rule="nonzero" xlink:href="#e"/></g></g></svg>