<svg xmlns="http://www.w3.org/2000/svg" xmlns:xlink="http://www.w3.org/1999/xlink" width="70" height="70" viewBox="0 0 70 70"><defs><path id="a" d="M4 0h61c4 0 5 1 5 5v60c0 4-1 5-5 5H4c-3 0-4-1-4-5V5c0-4 1-5 4-5z"/><linearGradient id="c" x1="100%" x2="0%" y1="0%" y2="100%"><stop offset="0%" stop-color="#CDC484"/><stop offset="100%" stop-color="#B5AA59"/></linearGradient><path id="d" d="M34.993 19.54c.057.32 1.151 6.46 1.151 8.804 0 3.575-1.988 6.125-4.927 7.15l.922 16.277c.05.936-.729 1.729-1.716 1.729h-4.577c-.98 0-1.766-.786-1.716-1.73l.922-16.276c-2.946-1.025-4.927-3.582-4.927-7.15 0-2.352 1.094-8.484 1.151-8.805.23-1.388 3.24-1.408 3.426.075v9.653c.093.232 1.08.218 1.144 0 .1-1.73.565-9.516.572-9.694.236-1.422 3.197-1.422 3.426 0 .014.185.472 7.964.572 9.694.064.218 1.058.232 1.144 0v-9.653c.186-1.476 3.204-1.463 3.433-.075zm8.524 19.53l-1.072 12.653c-.086.957.708 1.777 1.709 1.777h4.005c.95 0 1.716-.731 1.716-1.64V20.14c0-.902-.765-1.64-1.716-1.64-5.9 0-15.834 12.202-4.642 20.57z"/><path id="e" d="M34.993 17.54c.057.32 1.151 6.46 1.151 8.804 0 3.575-1.988 6.125-4.927 7.15l.922 16.277c.05.936-.729 1.729-1.716 1.729h-4.577c-.98 0-1.766-.786-1.716-1.73l.922-16.276c-2.946-1.025-4.927-3.582-4.927-7.15 0-2.352 1.094-8.484 1.151-8.805.23-1.388 3.24-1.408 3.426.075v9.653c.093.232 1.08.218 1.144 0 .1-1.73.565-9.516.572-9.694.236-1.422 3.197-1.422 3.426 0 .014.185.472 7.964.572 9.694.064.218 1.058.232 1.144 0v-9.653c.186-1.476 3.204-1.463 3.433-.075zm8.524 19.53l-1.072 12.653c-.086.957.708 1.777 1.709 1.777h4.005c.95 0 1.716-.731 1.716-1.64V18.14c0-.902-.765-1.64-1.716-1.64-5.9 0-15.834 12.202-4.642 20.57z"/></defs><g fill="none" fill-rule="evenodd"><mask id="b" fill="#fff"><use xlink:href="#a"/></mask><g mask="url(#b)"><path fill="url(#c)" d="M0 0H70V70H0z"/><path fill="#FFF" fill-opacity=".383" d="M4 1h61c2.667 0 4.333.667 5 2V0H0v3c.667-1.333 2-2 4-2z"/><path fill="#393939" d="M39.55 69H4c-2 0-4-.146-4-4.078V41.88L23 17l-2 12.235L33 17l2 12.235L49 17v33.647L39.55 69z" opacity=".324"/><path fill="#000" fill-opacity=".383" d="M4 69h61c2.667 0 4.333-1 5-3v4H0v-4c.667 2 2 3 4 3z"/><use fill="#000" fill-rule="nonzero" opacity=".3" xlink:href="#d"/><use fill="#FFF" fill-rule="nonzero" xlink:href="#e"/></g></g></svg>