<svg xmlns="http://www.w3.org/2000/svg" xmlns:xlink="http://www.w3.org/1999/xlink" width="70" height="70" viewBox="0 0 70 70"><defs><path id="a" d="M4 0h61c4 0 5 1 5 5v60c0 4-1 5-5 5H4c-3 0-4-1-4-5V5c0-4 1-5 4-5z"/><linearGradient id="c" x1="100%" x2="0%" y1="0%" y2="100%"><stop offset="0%" stop-color="#CDC484"/><stop offset="100%" stop-color="#B5AA59"/></linearGradient></defs><g fill="none" fill-rule="evenodd"><mask id="b" fill="#fff"><use xlink:href="#a"/></mask><g mask="url(#b)"><path fill="url(#c)" d="M0 0H70V70H0z"/><path fill="#FFF" fill-opacity=".383" d="M4 1h61c2.667 0 4.333.667 5 2V0H0v3c.667-1.333 2-2 4-2z"/><path fill="#393939" d="M4 70c-2 0-4-.148-4-4.145V40.306L28 13h15l13 22.8v7.255h3v10.363L40.711 70H4z" opacity=".324"/><path fill="#000" fill-opacity=".383" d="M4 69h61c2.667 0 4.333-1 5-3v4H0v-4c.667 2 2 3 4 3z"/><path fill="#000" fill-rule="nonzero" d="M56.72 37H49c-.667 0-1 .333-1 1v1c0 .415-.517.658-1.194.8h-3.921L28 15h15.515L56.72 37zM42.777 55H21.6l7.586-12.8h13.236C42 43.155 41.526 44.422 41 46c.667.667 1 1.333 1 2v1c-.667.667-1 1.333-1 2 0 .444.593 1.778 1.778 4zM34.4 29.022L19.74 54.2 12 40.978 26.66 15.8l7.74 13.222zm24.712 20.594l1.655.97c.189.11.277.338.212.55a9.784 9.784 0 0 1-2.124 3.724.462.462 0 0 1-.576.09l-1.653-.97a7.415 7.415 0 0 1-2.36 1.384v1.937a.472.472 0 0 1-.364.461 9.575 9.575 0 0 1-4.241 0 .472.472 0 0 1-.365-.461v-1.937a7.414 7.414 0 0 1-2.36-1.383l-1.653.968a.462.462 0 0 1-.576-.089 9.784 9.784 0 0 1-2.124-3.724.476.476 0 0 1 .212-.55l1.655-.97a7.724 7.724 0 0 1 0-2.764l-1.655-.969a.476.476 0 0 1-.212-.55 9.784 9.784 0 0 1 2.124-3.725.462.462 0 0 1 .576-.089l1.654.969a7.415 7.415 0 0 1 2.359-1.383v-1.937c0-.221.151-.413.364-.462a9.575 9.575 0 0 1 4.241 0c.213.049.365.24.365.462v1.936c.864.31 1.664.78 2.36 1.384l1.653-.969a.462.462 0 0 1 .576.09 9.784 9.784 0 0 1 2.124 3.724.476.476 0 0 1-.212.55l-1.655.97c.166.913.166 1.85 0 2.763zm-4.224-1.382c0-1.737-1.394-3.15-3.107-3.15-1.713 0-3.106 1.413-3.106 3.15 0 1.737 1.393 3.15 3.106 3.15 1.713 0 3.107-1.413 3.107-3.15zm-41.08 10.274h-1.284v-.792h3.51v.792H14.75V62h-.942v-3.492zm2.718-.792h1.326l1.002 2.946h.012l.948-2.946h1.326V62h-.882v-3.036h-.012L19.196 62h-.726l-1.05-3.006h-.012V62h-.882v-4.284z" opacity=".3"/><path fill="#FFF" fill-rule="nonzero" d="M56.72 35H49c-.667 0-1 .333-1 1v1c0 .415-.517.658-1.194.8h-3.921L28 13h15.515L56.72 35zM42.777 53H21.6l7.586-12.8h13.236C42 41.155 41.526 42.422 41 44c.667.667 1 1.333 1 2v1c-.667.667-1 1.333-1 2 0 .444.593 1.778 1.778 4zM34.4 27.022L19.74 52.2 12 38.978 26.66 13.8l7.74 13.222zm24.712 20.594l1.655.97c.189.11.277.338.212.55a9.784 9.784 0 0 1-2.124 3.724.462.462 0 0 1-.576.09l-1.653-.97a7.415 7.415 0 0 1-2.36 1.384v1.937a.472.472 0 0 1-.364.461 9.575 9.575 0 0 1-4.241 0 .472.472 0 0 1-.365-.461v-1.937a7.414 7.414 0 0 1-2.36-1.383l-1.653.968a.462.462 0 0 1-.576-.089 9.784 9.784 0 0 1-2.124-3.724.476.476 0 0 1 .212-.55l1.655-.97a7.724 7.724 0 0 1 0-2.764l-1.655-.969a.476.476 0 0 1-.212-.55 9.784 9.784 0 0 1 2.124-3.725.462.462 0 0 1 .576-.089l1.654.969a7.415 7.415 0 0 1 2.359-1.383v-1.937c0-.221.151-.413.364-.462a9.575 9.575 0 0 1 4.241 0c.213.049.365.24.365.462v1.936c.864.31 1.664.78 2.36 1.384l1.653-.969a.462.462 0 0 1 .576.09 9.784 9.784 0 0 1 2.124 3.724.476.476 0 0 1-.212.55l-1.655.97c.166.913.166 1.85 0 2.763zm-4.224-1.382c0-1.737-1.394-3.15-3.107-3.15-1.713 0-3.106 1.413-3.106 3.15 0 1.737 1.393 3.15 3.106 3.15 1.713 0 3.107-1.413 3.107-3.15zm-41.08 10.274h-1.284v-.792h3.51v.792H14.75V60h-.942v-3.492zm2.718-.792h1.326l1.002 2.946h.012l.948-2.946h1.326V60h-.882v-3.036h-.012L19.196 60h-.726l-1.05-3.006h-.012V60h-.882v-4.284z"/></g></g></svg>