<svg xmlns="http://www.w3.org/2000/svg" xmlns:xlink="http://www.w3.org/1999/xlink" width="70" height="70" viewBox="0 0 70 70"><defs><path id="a" d="M4 0h61c4 0 5 1 5 5v60c0 4-1 5-5 5H4c-3 0-4-1-4-5V5c0-4 1-5 4-5z"/><linearGradient id="c" x1="100%" x2="0%" y1="0%" y2="100%"><stop offset="0%" stop-color="#7CC098"/><stop offset="100%" stop-color="#5F8A71"/></linearGradient></defs><g fill="none" fill-rule="evenodd"><mask id="b" fill="#fff"><use xlink:href="#a"/></mask><g mask="url(#b)"><path fill="url(#c)" d="M0 0H70V70H0z"/><path fill="#FFF" fill-opacity=".383" d="M4 1h61c2.667 0 4.333.667 5 2V0H0v3c.667-1.333 2-2 4-2z"/><path fill="#393939" d="M4 69c-2 0-4-.146-4-4.082V41.804L20 19h30l3 4.082-10 29.591L38.711 69H4z" opacity=".324"/><path fill="#000" fill-opacity=".383" d="M4 69h61c2.667 0 4.333-1 5-3v4H0v-4c.667 2 2 3 4 3z"/><path fill="#000" fill-rule="nonzero" d="M51.472 21.257c-1.156-.86-2.78-1.034-4.838-.528a48.56 48.56 0 0 0-.02-1.34.404.404 0 0 0-.407-.389H24.794c-.22 0-.4.172-.407.388-.012.38-.02.836-.02 1.34-2.06-.505-3.682-.332-4.839.528-1.204.897-1.724 2.45-1.461 4.372.563 4.131 4.615 9.756 10.526 12.473.998 1.378 2.232 2.539 3.743 3.36v.254c-.565.252-.963.81-.963 1.457v.046c0 .689.452 1.274 1.076 1.498v.695c-.682 1.317-1.776 2.994-3.344 4.172a.397.397 0 0 0-.139.446c.056.163.211.272.386.272h12.297c.174 0 .329-.11.385-.272a.396.396 0 0 0-.138-.446c-1.567-1.176-2.661-2.856-3.344-4.174v-.693a1.603 1.603 0 0 0 1.075-1.498v-.046c0-.647-.397-1.205-.962-1.457v-.253c1.512-.822 2.746-1.983 3.744-3.362 5.91-2.717 9.961-8.342 10.525-12.472.262-1.923-.258-3.475-1.462-4.371zm-30.905 4.042c-.079-.578-.121-1.615.483-2.064.594-.442 1.813-.399 3.38.09.155 3.075.639 7.013 1.955 10.542-3.28-2.521-5.465-5.973-5.818-8.568zm29.867 0c-.355 2.594-2.537 6.045-5.816 8.566 1.315-3.53 1.799-7.466 1.952-10.54 1.567-.489 2.786-.532 3.38-.09.604.45.563 1.486.484 2.064zM43 51.236c.207 0 .375.112.375.25v2.264c0 .138-.168.25-.375.25H28c-.207 0-.375-.112-.375-.25v-2.264c0-.138.168-.25.375-.25h15z" opacity=".3"/><path fill="#FFF" fill-rule="nonzero" d="M51.472 19.257c-1.156-.86-2.78-1.034-4.838-.528a48.56 48.56 0 0 0-.02-1.34.404.404 0 0 0-.407-.389H24.794c-.22 0-.4.172-.407.388-.012.38-.02.836-.02 1.34-2.06-.505-3.682-.332-4.839.528-1.204.897-1.724 2.45-1.461 4.372.563 4.131 4.615 9.756 10.526 12.473.998 1.378 2.232 2.539 3.743 3.36v.254c-.565.252-.963.81-.963 1.457 0 .735.452 1.32 1.076 1.544v.695c-.682 1.317-1.776 2.994-3.344 4.172a.397.397 0 0 0-.139.446c.056.163.211.272.386.272h12.297c.174 0 .329-.11.385-.272a.396.396 0 0 0-.138-.446c-1.567-1.176-2.661-2.856-3.344-4.174v-.693a1.603 1.603 0 0 0 1.075-1.498 1.62 1.62 0 0 0-.962-1.503v-.253c1.512-.822 2.746-1.983 3.744-3.362 5.91-2.717 9.961-8.342 10.525-12.472.262-1.923-.258-3.475-1.462-4.371zm-30.905 4.042c-.079-.578-.121-1.615.483-2.064.594-.442 1.813-.399 3.38.09.155 3.075.639 7.013 1.955 10.542-3.28-2.521-5.465-5.973-5.818-8.568zm29.867 0c-.355 2.594-2.537 6.045-5.816 8.566 1.315-3.53 1.799-7.466 1.952-10.54 1.567-.489 2.786-.532 3.38-.09.604.45.563 1.486.484 2.064zM43 49.236c.207 0 .375.112.375.25v2.264c0 .138-.168.25-.375.25H28c-.207 0-.375-.112-.375-.25v-2.264c0-.138.168-.25.375-.25h15z"/></g></g></svg>