<svg xmlns="http://www.w3.org/2000/svg" xmlns:xlink="http://www.w3.org/1999/xlink" width="70" height="70" viewBox="0 0 70 70"><defs><path id="a" d="M4 0h61c4 0 5 1 5 5v60c0 4-1 5-5 5H4c-3 0-4-1-4-5V5c0-4 1-5 4-5z"/><linearGradient id="c" x1="100%" x2="0%" y1="0%" y2="100%"><stop offset="0%" stop-color="#269396"/><stop offset="100%" stop-color="#218689"/></linearGradient><path id="d" d="M51.471 28.813c.5 0 .904-.403.904-.899V24.92a.901.901 0 0 0-.904-.898h-1.507v-3.594c0-1.985-1.619-3.594-3.616-3.594H22.241c-1.997 0-3.616 1.61-3.616 3.594v31.146c0 1.985 1.619 3.594 3.616 3.594h24.107c1.997 0 3.616-1.61 3.616-3.594v-3.594h1.507c.5 0 .904-.402.904-.898v-2.995a.901.901 0 0 0-.904-.898h-1.507v-4.792h1.507c.5 0 .904-.402.904-.899v-2.994a.901.901 0 0 0-.904-.899h-1.507v-4.791h1.507zm-5.575 22.76H22.693a.45.45 0 0 1-.452-.45V20.877a.45.45 0 0 1 .452-.449h23.203a.45.45 0 0 1 .452.45v30.247a.45.45 0 0 1-.452.449zM28.268 32.406c0-3.308 2.698-5.99 6.027-5.99 3.328 0 6.026 2.682 6.026 5.99 0 3.308-2.698 5.99-6.026 5.99-3.329 0-6.027-2.682-6.027-5.99zm15.67 9.994v1.386c0 .993-.81 1.797-1.809 1.797H26.46a1.802 1.802 0 0 1-1.807-1.797V42.4c0-1.65 1.13-3.087 2.739-3.487l2.686-.667c2.192 1.567 5.613 2.017 8.435 0l2.686.667a3.598 3.598 0 0 1 2.74 3.487z"/><path id="e" d="M51.471 26.813c.5 0 .904-.403.904-.899V22.92a.901.901 0 0 0-.904-.898h-1.507v-3.594c0-1.985-1.619-3.594-3.616-3.594H22.241c-1.997 0-3.616 1.61-3.616 3.594v31.146c0 1.985 1.619 3.594 3.616 3.594h24.107c1.997 0 3.616-1.61 3.616-3.594v-3.594h1.507c.5 0 .904-.402.904-.898v-2.995a.901.901 0 0 0-.904-.898h-1.507v-4.792h1.507c.5 0 .904-.402.904-.899v-2.994a.901.901 0 0 0-.904-.899h-1.507v-4.791h1.507zm-5.575 22.76H22.693a.45.45 0 0 1-.452-.45V18.877a.45.45 0 0 1 .452-.449h23.203a.45.45 0 0 1 .452.45v30.247a.45.45 0 0 1-.452.449zM28.268 30.406c0-3.308 2.698-5.99 6.027-5.99 3.328 0 6.026 2.682 6.026 5.99 0 3.308-2.698 5.99-6.026 5.99-3.329 0-6.027-2.682-6.027-5.99zm15.67 9.994v1.386c0 .993-.81 1.797-1.809 1.797H26.46a1.802 1.802 0 0 1-1.807-1.797V40.4c0-1.65 1.13-3.087 2.739-3.487l2.686-.667c2.192 1.567 5.613 2.017 8.435 0l2.686.667a3.598 3.598 0 0 1 2.74 3.487z"/></defs><g fill="none" fill-rule="evenodd"><mask id="b" fill="#fff"><use xlink:href="#a"/></mask><g mask="url(#b)"><path fill="url(#c)" d="M0 0H70V70H0z"/><path fill="#FFF" fill-opacity=".383" d="M4 1h61c2.667 0 4.333.667 5 2V0H0v3c.667-1.333 2-2 4-2z"/><path fill="#393939" d="M39.846 69H4c-2 0-4-.146-4-4.075V40.956L21 15h26l2 36.68L39.846 69z" opacity=".324"/><path fill="#000" fill-opacity=".383" d="M4 69h61c2.667 0 4.333-1 5-3v4H0v-4c.667 2 2 3 4 3z"/><use fill="#000" fill-rule="nonzero" opacity=".3" xlink:href="#d"/><use fill="#FFF" fill-rule="nonzero" xlink:href="#e"/></g></g></svg>